<svg id="visual" viewBox="0 0 960 300" width="960" height="300" xmlns="http://www.w3.org/2000/svg" xmlns:xlink="http://www.w3.org/1999/xlink" version="1.1"><rect x="0" y="0" width="960" height="300" fill="#E8AA42"></rect><path d="M0 147L10.7 147.5C21.3 148 42.7 149 64 147.5C85.3 146 106.7 142 128 143C149.3 144 170.7 150 192 143.8C213.3 137.7 234.7 119.3 256 109.8C277.3 100.3 298.7 99.7 320 106.2C341.3 112.7 362.7 126.3 384 127.2C405.3 128 426.7 116 448 116.8C469.3 117.7 490.7 131.3 512 137.5C533.3 143.7 554.7 142.3 576 141.2C597.3 140 618.7 139 640 139.5C661.3 140 682.7 142 704 142.3C725.3 142.7 746.7 141.3 768 138.8C789.3 136.3 810.7 132.7 832 131.5C853.3 130.3 874.7 131.7 896 126.3C917.3 121 938.7 109 949.3 103L960 97L960 301L949.3 301C938.7 301 917.3 301 896 301C874.7 301 853.3 301 832 301C810.7 301 789.3 301 768 301C746.7 301 725.3 301 704 301C682.7 301 661.3 301 640 301C618.7 301 597.3 301 576 301C554.7 301 533.3 301 512 301C490.7 301 469.3 301 448 301C426.7 301 405.3 301 384 301C362.7 301 341.3 301 320 301C298.7 301 277.3 301 256 301C234.7 301 213.3 301 192 301C170.7 301 149.3 301 128 301C106.7 301 85.3 301 64 301C42.7 301 21.3 301 10.7 301L0 301Z" fill="#e8aa42"></path><path d="M0 123L10.7 129.8C21.3 136.7 42.7 150.3 64 154.3C85.3 158.3 106.7 152.7 128 154.8C149.3 157 170.7 167 192 167.3C213.3 167.7 234.7 158.3 256 154.5C277.3 150.7 298.7 152.3 320 156.7C341.3 161 362.7 168 384 168.3C405.3 168.7 426.7 162.3 448 159.3C469.3 156.3 490.7 156.7 512 157.5C533.3 158.3 554.7 159.7 576 163C597.3 166.3 618.7 171.7 640 166.5C661.3 161.3 682.7 145.7 704 137.5C725.3 129.3 746.7 128.7 768 129.8C789.3 131 810.7 134 832 136.2C853.3 138.3 874.7 139.7 896 138.2C917.3 136.7 938.7 132.3 949.3 130.2L960 128L960 301L949.3 301C938.7 301 917.3 301 896 301C874.7 301 853.3 301 832 301C810.7 301 789.3 301 768 301C746.7 301 725.3 301 704 301C682.7 301 661.3 301 640 301C618.7 301 597.3 301 576 301C554.7 301 533.3 301 512 301C490.7 301 469.3 301 448 301C426.7 301 405.3 301 384 301C362.7 301 341.3 301 320 301C298.7 301 277.3 301 256 301C234.7 301 213.3 301 192 301C170.7 301 149.3 301 128 301C106.7 301 85.3 301 64 301C42.7 301 21.3 301 10.7 301L0 301Z" fill="#b4a73b"></path><path d="M0 182L10.7 177C21.3 172 42.7 162 64 162.3C85.3 162.7 106.7 173.3 128 175.2C149.3 177 170.7 170 192 168C213.3 166 234.7 169 256 169.2C277.3 169.3 298.7 166.7 320 170C341.3 173.3 362.7 182.7 384 187.7C405.3 192.7 426.7 193.3 448 188.3C469.3 183.3 490.7 172.7 512 171.2C533.3 169.7 554.7 177.3 576 177C597.3 176.7 618.7 168.3 640 170.5C661.3 172.7 682.7 185.3 704 186.8C725.3 188.3 746.7 178.7 768 173.7C789.3 168.7 810.7 168.3 832 169C853.3 169.7 874.7 171.3 896 170.8C917.3 170.3 938.7 167.7 949.3 166.3L960 165L960 301L949.3 301C938.7 301 917.3 301 896 301C874.7 301 853.3 301 832 301C810.7 301 789.3 301 768 301C746.7 301 725.3 301 704 301C682.7 301 661.3 301 640 301C618.7 301 597.3 301 576 301C554.7 301 533.3 301 512 301C490.7 301 469.3 301 448 301C426.7 301 405.3 301 384 301C362.7 301 341.3 301 320 301C298.7 301 277.3 301 256 301C234.7 301 213.3 301 192 301C170.7 301 149.3 301 128 301C106.7 301 85.3 301 64 301C42.7 301 21.3 301 10.7 301L0 301Z" fill="#82a044"></path><path d="M0 212L10.7 209.3C21.3 206.7 42.7 201.3 64 196.5C85.3 191.7 106.7 187.3 128 190C149.3 192.7 170.7 202.3 192 203.8C213.3 205.3 234.7 198.7 256 199.2C277.3 199.7 298.7 207.3 320 209.2C341.3 211 362.7 207 384 200.5C405.3 194 426.7 185 448 185.5C469.3 186 490.7 196 512 195.7C533.3 195.3 554.7 184.7 576 183.8C597.3 183 618.7 192 640 191.8C661.3 191.7 682.7 182.3 704 182.5C725.3 182.7 746.7 192.3 768 198.8C789.3 205.3 810.7 208.7 832 204.3C853.3 200 874.7 188 896 186C917.3 184 938.7 192 949.3 196L960 200L960 301L949.3 301C938.7 301 917.3 301 896 301C874.7 301 853.3 301 832 301C810.7 301 789.3 301 768 301C746.7 301 725.3 301 704 301C682.7 301 661.3 301 640 301C618.7 301 597.3 301 576 301C554.7 301 533.3 301 512 301C490.7 301 469.3 301 448 301C426.7 301 405.3 301 384 301C362.7 301 341.3 301 320 301C298.7 301 277.3 301 256 301C234.7 301 213.3 301 192 301C170.7 301 149.3 301 128 301C106.7 301 85.3 301 64 301C42.7 301 21.3 301 10.7 301L0 301Z" fill="#549554"></path><path d="M0 230L10.7 224.3C21.3 218.7 42.7 207.3 64 207.5C85.3 207.7 106.7 219.3 128 219.8C149.3 220.3 170.7 209.7 192 203.5C213.3 197.3 234.7 195.7 256 201.2C277.3 206.7 298.7 219.3 320 223.2C341.3 227 362.7 222 384 214.8C405.3 207.7 426.7 198.3 448 196.8C469.3 195.3 490.7 201.7 512 202.5C533.3 203.3 554.7 198.7 576 199.7C597.3 200.7 618.7 207.3 640 211.3C661.3 215.3 682.7 216.7 704 217C725.3 217.3 746.7 216.7 768 213.5C789.3 210.3 810.7 204.7 832 200.7C853.3 196.7 874.7 194.3 896 192.8C917.3 191.3 938.7 190.7 949.3 190.3L960 190L960 301L949.3 301C938.7 301 917.3 301 896 301C874.7 301 853.3 301 832 301C810.7 301 789.3 301 768 301C746.7 301 725.3 301 704 301C682.7 301 661.3 301 640 301C618.7 301 597.3 301 576 301C554.7 301 533.3 301 512 301C490.7 301 469.3 301 448 301C426.7 301 405.3 301 384 301C362.7 301 341.3 301 320 301C298.7 301 277.3 301 256 301C234.7 301 213.3 301 192 301C170.7 301 149.3 301 128 301C106.7 301 85.3 301 64 301C42.7 301 21.3 301 10.7 301L0 301Z" fill="#268762"></path><path d="M0 238L10.7 235.5C21.3 233 42.7 228 64 230C85.3 232 106.7 241 128 243.8C149.3 246.7 170.7 243.3 192 242C213.3 240.7 234.7 241.3 256 236.7C277.3 232 298.7 222 320 221.5C341.3 221 362.7 230 384 235C405.3 240 426.7 241 448 242.5C469.3 244 490.7 246 512 242C533.3 238 554.7 228 576 228.7C597.3 229.3 618.7 240.7 640 241.5C661.3 242.3 682.7 232.7 704 232.5C725.3 232.3 746.7 241.7 768 244C789.3 246.3 810.7 241.7 832 241.8C853.3 242 874.7 247 896 250C917.3 253 938.7 254 949.3 254.5L960 255L960 301L949.3 301C938.7 301 917.3 301 896 301C874.7 301 853.3 301 832 301C810.7 301 789.3 301 768 301C746.7 301 725.3 301 704 301C682.7 301 661.3 301 640 301C618.7 301 597.3 301 576 301C554.7 301 533.3 301 512 301C490.7 301 469.3 301 448 301C426.7 301 405.3 301 384 301C362.7 301 341.3 301 320 301C298.7 301 277.3 301 256 301C234.7 301 213.3 301 192 301C170.7 301 149.3 301 128 301C106.7 301 85.3 301 64 301C42.7 301 21.3 301 10.7 301L0 301Z" fill="#00776b"></path><path d="M0 268L10.7 268.2C21.3 268.3 42.7 268.7 64 263.8C85.3 259 106.7 249 128 244C149.3 239 170.7 239 192 244C213.3 249 234.7 259 256 258.3C277.3 257.7 298.7 246.3 320 246.7C341.3 247 362.7 259 384 263.8C405.3 268.7 426.7 266.3 448 262C469.3 257.7 490.7 251.3 512 246.8C533.3 242.3 554.7 239.7 576 239.2C597.3 238.7 618.7 240.3 640 246.2C661.3 252 682.7 262 704 262.3C725.3 262.7 746.7 253.3 768 250C789.3 246.7 810.7 249.3 832 248.2C853.3 247 874.7 242 896 242.7C917.3 243.3 938.7 249.7 949.3 252.8L960 256L960 301L949.3 301C938.7 301 917.3 301 896 301C874.7 301 853.3 301 832 301C810.7 301 789.3 301 768 301C746.7 301 725.3 301 704 301C682.7 301 661.3 301 640 301C618.7 301 597.3 301 576 301C554.7 301 533.3 301 512 301C490.7 301 469.3 301 448 301C426.7 301 405.3 301 384 301C362.7 301 341.3 301 320 301C298.7 301 277.3 301 256 301C234.7 301 213.3 301 192 301C170.7 301 149.3 301 128 301C106.7 301 85.3 301 64 301C42.7 301 21.3 301 10.7 301L0 301Z" fill="#00666c"></path><path d="M0 264L10.7 267.7C21.3 271.3 42.7 278.7 64 283.2C85.3 287.7 106.7 289.3 128 284.8C149.3 280.3 170.7 269.7 192 269.2C213.3 268.7 234.7 278.3 256 278.7C277.3 279 298.7 270 320 267.8C341.3 265.7 362.7 270.3 384 270C405.3 269.7 426.7 264.3 448 266.8C469.3 269.3 490.7 279.7 512 279.7C533.3 279.7 554.7 269.3 576 264.3C597.3 259.3 618.7 259.7 640 264C661.3 268.3 682.7 276.7 704 280.3C725.3 284 746.7 283 768 284.3C789.3 285.7 810.7 289.3 832 289C853.3 288.7 874.7 284.3 896 280.5C917.3 276.7 938.7 273.3 949.3 271.7L960 270L960 301L949.3 301C938.7 301 917.3 301 896 301C874.7 301 853.3 301 832 301C810.7 301 789.3 301 768 301C746.7 301 725.3 301 704 301C682.7 301 661.3 301 640 301C618.7 301 597.3 301 576 301C554.7 301 533.3 301 512 301C490.7 301 469.3 301 448 301C426.7 301 405.3 301 384 301C362.7 301 341.3 301 320 301C298.7 301 277.3 301 256 301C234.7 301 213.3 301 192 301C170.7 301 149.3 301 128 301C106.7 301 85.3 301 64 301C42.7 301 21.3 301 10.7 301L0 301Z" fill="#025464"></path></svg>