<svg id="visual" viewBox="0 0 960 240" width="960" height="240" xmlns="http://www.w3.org/2000/svg" xmlns:xlink="http://www.w3.org/1999/xlink" version="1.1"><rect x="0" y="0" width="960" height="240" fill="#025464"></rect><path d="M0 97L60 86L120 67L180 47L240 66L300 70L360 54L420 49L480 103L540 68L600 89L660 48L720 82L780 95L840 85L900 88L960 90L960 241L900 241L840 241L780 241L720 241L660 241L600 241L540 241L480 241L420 241L360 241L300 241L240 241L180 241L120 241L60 241L0 241Z" fill="#025464"></path><path d="M0 117L60 91L120 86L180 108L240 87L300 116L360 121L420 106L480 108L540 112L600 88L660 117L720 108L780 117L840 83L900 107L960 95L960 241L900 241L840 241L780 241L720 241L660 241L600 241L540 241L480 241L420 241L360 241L300 241L240 241L180 241L120 241L60 241L0 241Z" fill="#00696c"></path><path d="M0 107L60 112L120 122L180 139L240 104L300 129L360 110L420 125L480 124L540 126L600 118L660 112L720 134L780 127L840 116L900 123L960 110L960 241L900 241L840 241L780 241L720 241L660 241L600 241L540 241L480 241L420 241L360 241L300 241L240 241L180 241L120 241L60 241L0 241Z" fill="#007c68"></path><path d="M0 126L60 139L120 150L180 155L240 157L300 129L360 157L420 150L480 145L540 145L600 145L660 139L720 158L780 132L840 148L900 152L960 161L960 241L900 241L840 241L780 241L720 241L660 241L600 241L540 241L480 241L420 241L360 241L300 241L240 241L180 241L120 241L60 241L0 241Z" fill="#3e8e5b"></path><path d="M0 149L60 159L120 171L180 167L240 147L300 159L360 176L420 152L480 158L540 166L600 148L660 158L720 147L780 148L840 158L900 158L960 147L960 241L900 241L840 241L780 241L720 241L660 241L600 241L540 241L480 241L420 241L360 241L300 241L240 241L180 241L120 241L60 241L0 241Z" fill="#739d49"></path><path d="M0 201L60 195L120 190L180 174L240 198L300 192L360 188L420 201L480 180L540 195L600 195L660 192L720 182L780 188L840 190L900 198L960 196L960 241L900 241L840 241L780 241L720 241L660 241L600 241L540 241L480 241L420 241L360 241L300 241L240 241L180 241L120 241L60 241L0 241Z" fill="#aba63c"></path><path d="M0 219L60 217L120 197L180 211L240 210L300 212L360 211L420 205L480 218L540 197L600 219L660 204L720 202L780 211L840 217L900 208L960 212L960 241L900 241L840 241L780 241L720 241L660 241L600 241L540 241L480 241L420 241L360 241L300 241L240 241L180 241L120 241L60 241L0 241Z" fill="#e8aa42"></path></svg>