<svg id="visual" viewBox="0 0 900 300" width="900" height="300" xmlns="http://www.w3.org/2000/svg" xmlns:xlink="http://www.w3.org/1999/xlink" version="1.1"><rect x="0" y="0" width="900" height="300" fill="#025464"></rect><path d="M0 184L13.7 182.8C27.3 181.7 54.7 179.3 82 182.3C109.3 185.3 136.7 193.7 163.8 193.3C191 193 218 184 245.2 175.7C272.3 167.3 299.7 159.7 327 166C354.3 172.3 381.7 192.7 409 196.3C436.3 200 463.7 187 491 180.8C518.3 174.7 545.7 175.3 573 178C600.3 180.7 627.7 185.3 654.8 192C682 198.7 709 207.3 736.2 210.2C763.3 213 790.7 210 818 199.5C845.3 189 872.7 171 886.3 162L900 153L900 0L886.3 0C872.7 0 845.3 0 818 0C790.7 0 763.3 0 736.2 0C709 0 682 0 654.8 0C627.7 0 600.3 0 573 0C545.7 0 518.3 0 491 0C463.7 0 436.3 0 409 0C381.7 0 354.3 0 327 0C299.7 0 272.3 0 245.2 0C218 0 191 0 163.8 0C136.7 0 109.3 0 82 0C54.7 0 27.3 0 13.7 0L0 0Z" fill="#e8aa42"></path><path d="M0 154L13.7 152.7C27.3 151.3 54.7 148.7 82 154.2C109.3 159.7 136.7 173.3 163.8 179.8C191 186.3 218 185.7 245.2 179.2C272.3 172.7 299.7 160.3 327 155C354.3 149.7 381.7 151.3 409 151.8C436.3 152.3 463.7 151.7 491 155.5C518.3 159.3 545.7 167.7 573 171.2C600.3 174.7 627.7 173.3 654.8 173.8C682 174.3 709 176.7 736.2 170.5C763.3 164.3 790.7 149.7 818 145C845.3 140.3 872.7 145.7 886.3 148.3L900 151L900 0L886.3 0C872.7 0 845.3 0 818 0C790.7 0 763.3 0 736.2 0C709 0 682 0 654.8 0C627.7 0 600.3 0 573 0C545.7 0 518.3 0 491 0C463.7 0 436.3 0 409 0C381.7 0 354.3 0 327 0C299.7 0 272.3 0 245.2 0C218 0 191 0 163.8 0C136.7 0 109.3 0 82 0C54.7 0 27.3 0 13.7 0L0 0Z" fill="#edb250"></path><path d="M0 100L13.7 105.7C27.3 111.3 54.7 122.7 82 129.3C109.3 136 136.7 138 163.8 134.7C191 131.3 218 122.7 245.2 122.3C272.3 122 299.7 130 327 130.8C354.3 131.7 381.7 125.3 409 127.2C436.3 129 463.7 139 491 144.7C518.3 150.3 545.7 151.7 573 144.3C600.3 137 627.7 121 654.8 121.2C682 121.3 709 137.7 736.2 137.2C763.3 136.7 790.7 119.3 818 110.2C845.3 101 872.7 100 886.3 99.5L900 99L900 0L886.3 0C872.7 0 845.3 0 818 0C790.7 0 763.3 0 736.2 0C709 0 682 0 654.8 0C627.7 0 600.3 0 573 0C545.7 0 518.3 0 491 0C463.7 0 436.3 0 409 0C381.7 0 354.3 0 327 0C299.7 0 272.3 0 245.2 0C218 0 191 0 163.8 0C136.7 0 109.3 0 82 0C54.7 0 27.3 0 13.7 0L0 0Z" fill="#f2ba5d"></path><path d="M0 99L13.7 97.5C27.3 96 54.7 93 82 90.2C109.3 87.3 136.7 84.7 163.8 89.8C191 95 218 108 245.2 108.7C272.3 109.3 299.7 97.7 327 94.8C354.3 92 381.7 98 409 97.8C436.3 97.7 463.7 91.3 491 90.8C518.3 90.3 545.7 95.7 573 97.2C600.3 98.7 627.7 96.3 654.8 98.5C682 100.7 709 107.3 736.2 111.3C763.3 115.3 790.7 116.7 818 109.3C845.3 102 872.7 86 886.3 78L900 70L900 0L886.3 0C872.7 0 845.3 0 818 0C790.7 0 763.3 0 736.2 0C709 0 682 0 654.8 0C627.7 0 600.3 0 573 0C545.7 0 518.3 0 491 0C463.7 0 436.3 0 409 0C381.7 0 354.3 0 327 0C299.7 0 272.3 0 245.2 0C218 0 191 0 163.8 0C136.7 0 109.3 0 82 0C54.7 0 27.3 0 13.7 0L0 0Z" fill="#f6c26b"></path><path d="M0 70L13.7 67.8C27.3 65.7 54.7 61.3 82 56.7C109.3 52 136.7 47 163.8 52.2C191 57.3 218 72.7 245.2 75.8C272.3 79 299.7 70 327 66.2C354.3 62.3 381.7 63.7 409 65.7C436.3 67.7 463.7 70.3 491 71.5C518.3 72.7 545.7 72.3 573 66.5C600.3 60.7 627.7 49.3 654.8 45C682 40.7 709 43.3 736.2 51.7C763.3 60 790.7 74 818 78.7C845.3 83.3 872.7 78.7 886.3 76.3L900 74L900 0L886.3 0C872.7 0 845.3 0 818 0C790.7 0 763.3 0 736.2 0C709 0 682 0 654.8 0C627.7 0 600.3 0 573 0C545.7 0 518.3 0 491 0C463.7 0 436.3 0 409 0C381.7 0 354.3 0 327 0C299.7 0 272.3 0 245.2 0C218 0 191 0 163.8 0C136.7 0 109.3 0 82 0C54.7 0 27.3 0 13.7 0L0 0Z" fill="#fbca78"></path><path d="M0 32L13.7 31.2C27.3 30.3 54.7 28.7 82 29C109.3 29.3 136.7 31.7 163.8 36.5C191 41.3 218 48.7 245.2 51.8C272.3 55 299.7 54 327 49.8C354.3 45.7 381.7 38.3 409 31.7C436.3 25 463.7 19 491 20.7C518.3 22.3 545.7 31.7 573 32.5C600.3 33.3 627.7 25.7 654.8 25.3C682 25 709 32 736.2 32.7C763.3 33.3 790.7 27.7 818 29.7C845.3 31.7 872.7 41.3 886.3 46.2L900 51L900 0L886.3 0C872.7 0 845.3 0 818 0C790.7 0 763.3 0 736.2 0C709 0 682 0 654.8 0C627.7 0 600.3 0 573 0C545.7 0 518.3 0 491 0C463.7 0 436.3 0 409 0C381.7 0 354.3 0 327 0C299.7 0 272.3 0 245.2 0C218 0 191 0 163.8 0C136.7 0 109.3 0 82 0C54.7 0 27.3 0 13.7 0L0 0Z" fill="#ffd285"></path></svg>