<svg id="visual" viewBox="0 0 960 540" width="960" height="540" xmlns="http://www.w3.org/2000/svg" xmlns:xlink="http://www.w3.org/1999/xlink" version="1.1"><rect x="0" y="0" width="960" height="540" fill="#E8AA42"></rect><path d="M0 230L60 230L60 125L120 125L120 138L180 138L180 110L240 110L240 154L300 154L300 153L360 153L360 157L420 157L420 232L480 232L480 170L540 170L540 217L600 217L600 172L660 172L660 227L720 227L720 241L780 241L780 212L840 212L840 163L900 163L900 225L960 225L960 138L960 541L960 541L900 541L900 541L840 541L840 541L780 541L780 541L720 541L720 541L660 541L660 541L600 541L600 541L540 541L540 541L480 541L480 541L420 541L420 541L360 541L360 541L300 541L300 541L240 541L240 541L180 541L180 541L120 541L120 541L60 541L60 541L0 541Z" fill="#e8aa42"></path><path d="M0 226L60 226L60 241L120 241L120 232L180 232L180 253L240 253L240 227L300 227L300 289L360 289L360 264L420 264L420 283L480 283L480 218L540 218L540 316L600 316L600 300L660 300L660 199L720 199L720 308L780 308L780 204L840 204L840 282L900 282L900 285L960 285L960 199L960 541L960 541L900 541L900 541L840 541L840 541L780 541L780 541L720 541L720 541L660 541L660 541L600 541L600 541L540 541L540 541L480 541L480 541L420 541L420 541L360 541L360 541L300 541L300 541L240 541L240 541L180 541L180 541L120 541L120 541L60 541L60 541L0 541Z" fill="#739d49"></path><path d="M0 297L60 297L60 346L120 346L120 316L180 316L180 303L240 303L240 392L300 392L300 318L360 318L360 303L420 303L420 347L480 347L480 388L540 388L540 375L600 375L600 366L660 366L660 331L720 331L720 384L780 384L780 387L840 387L840 321L900 321L900 387L960 387L960 339L960 541L960 541L900 541L900 541L840 541L840 541L780 541L780 541L720 541L720 541L660 541L660 541L600 541L600 541L540 541L540 541L480 541L480 541L420 541L420 541L360 541L360 541L300 541L300 541L240 541L240 541L180 541L180 541L120 541L120 541L60 541L60 541L0 541Z" fill="#007c68"></path><path d="M0 443L60 443L60 443L120 443L120 453L180 453L180 408L240 408L240 399L300 399L300 438L360 438L360 398L420 398L420 469L480 469L480 463L540 463L540 406L600 406L600 416L660 416L660 464L720 464L720 427L780 427L780 447L840 447L840 446L900 446L900 444L960 444L960 390L960 541L960 541L900 541L900 541L840 541L840 541L780 541L780 541L720 541L720 541L660 541L660 541L600 541L600 541L540 541L540 541L480 541L480 541L420 541L420 541L360 541L360 541L300 541L300 541L240 541L240 541L180 541L180 541L120 541L120 541L60 541L60 541L0 541Z" fill="#025464"></path></svg>