<svg id="visual" viewBox="0 0 960 540" width="960" height="540" xmlns="http://www.w3.org/2000/svg" xmlns:xlink="http://www.w3.org/1999/xlink" version="1.1"><rect x="0" y="0" width="960" height="540" fill="#E8AA42"></rect><path d="M0 295L64 295L64 208L128 208L128 212L192 212L192 303L256 303L256 192L320 192L320 274L384 274L384 213L448 213L448 266L512 266L512 331L576 331L576 239L640 239L640 279L704 279L704 196L768 196L768 221L832 221L832 296L896 296L896 232L960 232L960 302L960 541L960 541L896 541L896 541L832 541L832 541L768 541L768 541L704 541L704 541L640 541L640 541L576 541L576 541L512 541L512 541L448 541L448 541L384 541L384 541L320 541L320 541L256 541L256 541L192 541L192 541L128 541L128 541L64 541L64 541L0 541Z" fill="#e8aa42"></path><path d="M0 319L64 319L64 267L128 267L128 252L192 252L192 296L256 296L256 301L320 301L320 344L384 344L384 349L448 349L448 264L512 264L512 368L576 368L576 342L640 342L640 268L704 268L704 362L768 362L768 367L832 367L832 309L896 309L896 320L960 320L960 344L960 541L960 541L896 541L896 541L832 541L832 541L768 541L768 541L704 541L704 541L640 541L640 541L576 541L576 541L512 541L512 541L448 541L448 541L384 541L384 541L320 541L320 541L256 541L256 541L192 541L192 541L128 541L128 541L64 541L64 541L0 541Z" fill="#8ea241"></path><path d="M0 375L64 375L64 403L128 403L128 377L192 377L192 319L256 319L256 376L320 376L320 390L384 390L384 416L448 416L448 336L512 336L512 415L576 415L576 325L640 325L640 410L704 410L704 333L768 333L768 382L832 382L832 392L896 392L896 351L960 351L960 375L960 541L960 541L896 541L896 541L832 541L832 541L768 541L768 541L704 541L704 541L640 541L640 541L576 541L576 541L512 541L512 541L448 541L448 541L384 541L384 541L320 541L320 541L256 541L256 541L192 541L192 541L128 541L128 541L64 541L64 541L0 541Z" fill="#3e8e5b"></path><path d="M0 463L64 463L64 444L128 444L128 470L192 470L192 457L256 457L256 448L320 448L320 450L384 450L384 449L448 449L448 410L512 410L512 438L576 438L576 439L640 439L640 425L704 425L704 419L768 419L768 416L832 416L832 446L896 446L896 427L960 427L960 392L960 541L960 541L896 541L896 541L832 541L832 541L768 541L768 541L704 541L704 541L640 541L640 541L576 541L576 541L512 541L512 541L448 541L448 541L384 541L384 541L320 541L320 541L256 541L256 541L192 541L192 541L128 541L128 541L64 541L64 541L0 541Z" fill="#00736c"></path><path d="M0 438L64 438L64 491L128 491L128 448L192 448L192 443L256 443L256 460L320 460L320 488L384 488L384 505L448 505L448 478L512 478L512 513L576 513L576 433L640 433L640 439L704 439L704 443L768 443L768 509L832 509L832 464L896 464L896 436L960 436L960 442L960 541L960 541L896 541L896 541L832 541L832 541L768 541L768 541L704 541L704 541L640 541L640 541L576 541L576 541L512 541L512 541L448 541L448 541L384 541L384 541L320 541L320 541L256 541L256 541L192 541L192 541L128 541L128 541L64 541L64 541L0 541Z" fill="#025464"></path></svg>