<svg width="20" height="779" viewBox="0 0 20 779" fill="none" xmlns="http://www.w3.org/2000/svg">
<g filter="url(#filter0_d_7_55)">
<path d="M11 10L15.7735 0H4.2265L9 10H11ZM4.66667 765C4.66667 767.946 7.05448 770.333 10 770.333C12.9455 770.333 15.3333 767.946 15.3333 765C15.3333 762.054 12.9455 759.667 10 759.667C7.05448 759.667 4.66667 762.054 4.66667 765ZM9 2.98828C9 3.54057 9.44772 3.98828 10 3.98828C10.5523 3.98828 11 3.54057 11 2.98828H9ZM11 8.96484C11 8.41256 10.5523 7.96484 10 7.96484C9.44772 7.96484 9 8.41256 9 8.96484H11ZM9 14.9414C9 15.4937 9.44772 15.9414 10 15.9414C10.5523 15.9414 11 15.4937 11 14.9414H9ZM11 20.918C11 20.3657 10.5523 19.918 10 19.918C9.44772 19.918 9 20.3657 9 20.918H11ZM9 26.8945C9 27.4468 9.44772 27.8945 10 27.8945C10.5523 27.8945 11 27.4468 11 26.8945H9ZM11 32.8711C11 32.3188 10.5523 31.8711 10 31.8711C9.44772 31.8711 9 32.3188 9 32.8711H11ZM9 38.8477C9 39.3999 9.44772 39.8477 10 39.8477C10.5523 39.8477 11 39.3999 11 38.8477H9ZM11 44.8242C11 44.2719 10.5523 43.8242 10 43.8242C9.44772 43.8242 9 44.2719 9 44.8242H11ZM9 50.8008C9 51.3531 9.44772 51.8008 10 51.8008C10.5523 51.8008 11 51.3531 11 50.8008H9ZM11 56.7773C11 56.2251 10.5523 55.7773 10 55.7773C9.44772 55.7773 9 56.2251 9 56.7773H11ZM9 62.7539C9 63.3062 9.44772 63.7539 10 63.7539C10.5523 63.7539 11 63.3062 11 62.7539H9ZM11 68.7305C11 68.1782 10.5523 67.7305 10 67.7305C9.44772 67.7305 9 68.1782 9 68.7305H11ZM9 74.707C9 75.2593 9.44772 75.707 10 75.707C10.5523 75.707 11 75.2593 11 74.707H9ZM11 80.6836C11 80.1313 10.5523 79.6836 10 79.6836C9.44772 79.6836 9 80.1313 9 80.6836H11ZM9 86.6602C9 87.2124 9.44772 87.6602 10 87.6602C10.5523 87.6602 11 87.2124 11 86.6602H9ZM11 92.6367C11 92.0844 10.5523 91.6367 10 91.6367C9.44772 91.6367 9 92.0844 9 92.6367H11ZM9 98.6133C9 99.1656 9.44772 99.6133 10 99.6133C10.5523 99.6133 11 99.1656 11 98.6133H9ZM11 104.59C11 104.038 10.5523 103.59 10 103.59C9.44772 103.59 9 104.038 9 104.59H11ZM9 110.566C9 111.119 9.44772 111.566 10 111.566C10.5523 111.566 11 111.119 11 110.566H9ZM11 116.543C11 115.991 10.5523 115.543 10 115.543C9.44772 115.543 9 115.991 9 116.543H11ZM9 122.52C9 123.072 9.44772 123.52 10 123.52C10.5523 123.52 11 123.072 11 122.52H9ZM11 128.496C11 127.944 10.5523 127.496 10 127.496C9.44772 127.496 9 127.944 9 128.496H11ZM9 134.473C9 135.025 9.44772 135.473 10 135.473C10.5523 135.473 11 135.025 11 134.473H9ZM11 140.449C11 139.897 10.5523 139.449 10 139.449C9.44772 139.449 9 139.897 9 140.449H11ZM9 146.426C9 146.978 9.44772 147.426 10 147.426C10.5523 147.426 11 146.978 11 146.426H9ZM11 152.402C11 151.85 10.5523 151.402 10 151.402C9.44772 151.402 9 151.85 9 152.402H11ZM9 158.379C9 158.931 9.44772 159.379 10 159.379C10.5523 159.379 11 158.931 11 158.379H9ZM11 164.355C11 163.803 10.5523 163.355 10 163.355C9.44772 163.355 9 163.803 9 164.355H11ZM9 170.332C9 170.884 9.44772 171.332 10 171.332C10.5523 171.332 11 170.884 11 170.332H9ZM11 176.309C11 175.756 10.5523 175.309 10 175.309C9.44772 175.309 9 175.756 9 176.309H11ZM9 182.285C9 182.837 9.44772 183.285 10 183.285C10.5523 183.285 11 182.837 11 182.285H9ZM11 188.262C11 187.709 10.5523 187.262 10 187.262C9.44772 187.262 9 187.709 9 188.262H11ZM9 194.238C9 194.791 9.44772 195.238 10 195.238C10.5523 195.238 11 194.791 11 194.238H9ZM11 200.215C11 199.663 10.5523 199.215 10 199.215C9.44772 199.215 9 199.663 9 200.215H11ZM9 206.191C9 206.744 9.44772 207.191 10 207.191C10.5523 207.191 11 206.744 11 206.191H9ZM11 212.168C11 211.616 10.5523 211.168 10 211.168C9.44772 211.168 9 211.616 9 212.168H11ZM9 218.145C9 218.697 9.44772 219.145 10 219.145C10.5523 219.145 11 218.697 11 218.145H9ZM11 224.121C11 223.569 10.5523 223.121 10 223.121C9.44772 223.121 9 223.569 9 224.121H11ZM9 230.098C9 230.65 9.44772 231.098 10 231.098C10.5523 231.098 11 230.65 11 230.098H9ZM11 236.074C11 235.522 10.5523 235.074 10 235.074C9.44772 235.074 9 235.522 9 236.074H11ZM9 242.051C9 242.603 9.44772 243.051 10 243.051C10.5523 243.051 11 242.603 11 242.051H9ZM11 248.027C11 247.475 10.5523 247.027 10 247.027C9.44772 247.027 9 247.475 9 248.027H11ZM9 254.004C9 254.556 9.44772 255.004 10 255.004C10.5523 255.004 11 254.556 11 254.004H9ZM11 259.98C11 259.428 10.5523 258.98 10 258.98C9.44772 258.98 9 259.428 9 259.98H11ZM9 265.957C9 266.509 9.44772 266.957 10 266.957C10.5523 266.957 11 266.509 11 265.957H9ZM11 271.934C11 271.381 10.5523 270.934 10 270.934C9.44772 270.934 9 271.381 9 271.934H11ZM9 277.91C9 278.462 9.44772 278.91 10 278.91C10.5523 278.91 11 278.462 11 277.91H9ZM11 283.887C11 283.334 10.5523 282.887 10 282.887C9.44772 282.887 9 283.334 9 283.887H11ZM9 289.863C9 290.416 9.44772 290.863 10 290.863C10.5523 290.863 11 290.416 11 289.863H9ZM11 295.84C11 295.288 10.5523 294.84 10 294.84C9.44772 294.84 9 295.288 9 295.84H11ZM9 301.816C9 302.369 9.44772 302.816 10 302.816C10.5523 302.816 11 302.369 11 301.816H9ZM11 307.793C11 307.241 10.5523 306.793 10 306.793C9.44772 306.793 9 307.241 9 307.793H11ZM9 313.77C9 314.322 9.44772 314.77 10 314.77C10.5523 314.77 11 314.322 11 313.77H9ZM11 319.746C11 319.194 10.5523 318.746 10 318.746C9.44772 318.746 9 319.194 9 319.746H11ZM9 325.723C9 326.275 9.44772 326.723 10 326.723C10.5523 326.723 11 326.275 11 325.723H9ZM11 331.699C11 331.147 10.5523 330.699 10 330.699C9.44772 330.699 9 331.147 9 331.699H11ZM9 337.676C9 338.228 9.44772 338.676 10 338.676C10.5523 338.676 11 338.228 11 337.676H9ZM11 343.652C11 343.1 10.5523 342.652 10 342.652C9.44772 342.652 9 343.1 9 343.652H11ZM9 349.629C9 350.181 9.44772 350.629 10 350.629C10.5523 350.629 11 350.181 11 349.629H9ZM11 355.605C11 355.053 10.5523 354.605 10 354.605C9.44772 354.605 9 355.053 9 355.605H11ZM9 361.582C9 362.134 9.44772 362.582 10 362.582C10.5523 362.582 11 362.134 11 361.582H9ZM11 367.559C11 367.006 10.5523 366.559 10 366.559C9.44772 366.559 9 367.006 9 367.559H11ZM9 373.535C9 374.087 9.44772 374.535 10 374.535C10.5523 374.535 11 374.087 11 373.535H9ZM11 379.512C11 378.959 10.5523 378.512 10 378.512C9.44772 378.512 9 378.959 9 379.512H11ZM9 385.488C9 386.041 9.44772 386.488 10 386.488C10.5523 386.488 11 386.041 11 385.488H9ZM11 391.465C11 390.913 10.5523 390.465 10 390.465C9.44772 390.465 9 390.913 9 391.465H11ZM9 397.441C9 397.994 9.44772 398.441 10 398.441C10.5523 398.441 11 397.994 11 397.441H9ZM11 403.418C11 402.866 10.5523 402.418 10 402.418C9.44772 402.418 9 402.866 9 403.418H11ZM9 409.395C9 409.947 9.44772 410.395 10 410.395C10.5523 410.395 11 409.947 11 409.395H9ZM11 415.371C11 414.819 10.5523 414.371 10 414.371C9.44772 414.371 9 414.819 9 415.371H11ZM9 421.348C9 421.9 9.44772 422.348 10 422.348C10.5523 422.348 11 421.9 11 421.348H9ZM11 427.324C11 426.772 10.5523 426.324 10 426.324C9.44772 426.324 9 426.772 9 427.324H11ZM9 433.301C9 433.853 9.44772 434.301 10 434.301C10.5523 434.301 11 433.853 11 433.301H9ZM11 439.277C11 438.725 10.5523 438.277 10 438.277C9.44772 438.277 9 438.725 9 439.277H11ZM9 445.254C9 445.806 9.44772 446.254 10 446.254C10.5523 446.254 11 445.806 11 445.254H9ZM11 451.23C11 450.678 10.5523 450.23 10 450.23C9.44772 450.23 9 450.678 9 451.23H11ZM9 457.207C9 457.759 9.44772 458.207 10 458.207C10.5523 458.207 11 457.759 11 457.207H9ZM11 463.184C11 462.631 10.5523 462.184 10 462.184C9.44772 462.184 9 462.631 9 463.184H11ZM9 469.16C9 469.712 9.44772 470.16 10 470.16C10.5523 470.16 11 469.712 11 469.16H9ZM11 475.137C11 474.584 10.5523 474.137 10 474.137C9.44772 474.137 9 474.584 9 475.137H11ZM9 481.113C9 481.666 9.44772 482.113 10 482.113C10.5523 482.113 11 481.666 11 481.113H9ZM11 487.09C11 486.538 10.5523 486.09 10 486.09C9.44772 486.09 9 486.538 9 487.09H11ZM9 493.066C9 493.619 9.44772 494.066 10 494.066C10.5523 494.066 11 493.619 11 493.066H9ZM11 499.043C11 498.491 10.5523 498.043 10 498.043C9.44772 498.043 9 498.491 9 499.043H11ZM9 505.02C9 505.572 9.44772 506.02 10 506.02C10.5523 506.02 11 505.572 11 505.02H9ZM11 510.996C11 510.444 10.5523 509.996 10 509.996C9.44772 509.996 9 510.444 9 510.996H11ZM9 516.973C9 517.525 9.44772 517.973 10 517.973C10.5523 517.973 11 517.525 11 516.973H9ZM11 522.949C11 522.397 10.5523 521.949 10 521.949C9.44772 521.949 9 522.397 9 522.949H11ZM9 528.926C9 529.478 9.44772 529.926 10 529.926C10.5523 529.926 11 529.478 11 528.926H9ZM11 534.902C11 534.35 10.5523 533.902 10 533.902C9.44772 533.902 9 534.35 9 534.902H11ZM9 540.879C9 541.431 9.44772 541.879 10 541.879C10.5523 541.879 11 541.431 11 540.879H9ZM11 546.855C11 546.303 10.5523 545.855 10 545.855C9.44772 545.855 9 546.303 9 546.855H11ZM9 552.832C9 553.384 9.44772 553.832 10 553.832C10.5523 553.832 11 553.384 11 552.832H9ZM11 558.809C11 558.256 10.5523 557.809 10 557.809C9.44772 557.809 9 558.256 9 558.809H11ZM9 564.785C9 565.337 9.44772 565.785 10 565.785C10.5523 565.785 11 565.337 11 564.785H9ZM11 570.762C11 570.209 10.5523 569.762 10 569.762C9.44772 569.762 9 570.209 9 570.762H11ZM9 576.738C9 577.291 9.44772 577.738 10 577.738C10.5523 577.738 11 577.291 11 576.738H9ZM11 582.715C11 582.163 10.5523 581.715 10 581.715C9.44772 581.715 9 582.163 9 582.715H11ZM9 588.691C9 589.244 9.44772 589.691 10 589.691C10.5523 589.691 11 589.244 11 588.691H9ZM11 594.668C11 594.116 10.5523 593.668 10 593.668C9.44772 593.668 9 594.116 9 594.668H11ZM9 600.645C9 601.197 9.44772 601.645 10 601.645C10.5523 601.645 11 601.197 11 600.645H9ZM11 606.621C11 606.069 10.5523 605.621 10 605.621C9.44772 605.621 9 606.069 9 606.621H11ZM9 612.598C9 613.15 9.44772 613.598 10 613.598C10.5523 613.598 11 613.15 11 612.598H9ZM11 618.574C11 618.022 10.5523 617.574 10 617.574C9.44772 617.574 9 618.022 9 618.574H11ZM9 624.551C9 625.103 9.44772 625.551 10 625.551C10.5523 625.551 11 625.103 11 624.551H9ZM11 630.527C11 629.975 10.5523 629.527 10 629.527C9.44772 629.527 9 629.975 9 630.527H11ZM9 636.504C9 637.056 9.44772 637.504 10 637.504C10.5523 637.504 11 637.056 11 636.504H9ZM11 642.48C11 641.928 10.5523 641.48 10 641.48C9.44772 641.48 9 641.928 9 642.48H11ZM9 648.457C9 649.009 9.44772 649.457 10 649.457C10.5523 649.457 11 649.009 11 648.457H9ZM11 654.434C11 653.881 10.5523 653.434 10 653.434C9.44772 653.434 9 653.881 9 654.434H11ZM9 660.41C9 660.962 9.44772 661.41 10 661.41C10.5523 661.41 11 660.962 11 660.41H9ZM11 666.387C11 665.834 10.5523 665.387 10 665.387C9.44772 665.387 9 665.834 9 666.387H11ZM9 672.363C9 672.916 9.44772 673.363 10 673.363C10.5523 673.363 11 672.916 11 672.363H9ZM11 678.34C11 677.788 10.5523 677.34 10 677.34C9.44772 677.34 9 677.788 9 678.34H11ZM9 684.316C9 684.869 9.44772 685.316 10 685.316C10.5523 685.316 11 684.869 11 684.316H9ZM11 690.293C11 689.741 10.5523 689.293 10 689.293C9.44772 689.293 9 689.741 9 690.293H11ZM9 696.27C9 696.822 9.44772 697.27 10 697.27C10.5523 697.27 11 696.822 11 696.27H9ZM11 702.246C11 701.694 10.5523 701.246 10 701.246C9.44772 701.246 9 701.694 9 702.246H11ZM9 708.223C9 708.775 9.44772 709.223 10 709.223C10.5523 709.223 11 708.775 11 708.223H9ZM11 714.199C11 713.647 10.5523 713.199 10 713.199C9.44772 713.199 9 713.647 9 714.199H11ZM9 720.176C9 720.728 9.44772 721.176 10 721.176C10.5523 721.176 11 720.728 11 720.176H9ZM11 726.152C11 725.6 10.5523 725.152 10 725.152C9.44772 725.152 9 725.6 9 726.152H11ZM9 732.129C9 732.681 9.44772 733.129 10 733.129C10.5523 733.129 11 732.681 11 732.129H9ZM11 738.105C11 737.553 10.5523 737.105 10 737.105C9.44772 737.105 9 737.553 9 738.105H11ZM9 744.082C9 744.634 9.44772 745.082 10 745.082C10.5523 745.082 11 744.634 11 744.082H9ZM11 750.059C11 749.506 10.5523 749.059 10 749.059C9.44772 749.059 9 749.506 9 750.059H11ZM9 756.035C9 756.587 9.44772 757.035 10 757.035C10.5523 757.035 11 756.587 11 756.035H9ZM11 762.012C11 761.459 10.5523 761.012 10 761.012C9.44772 761.012 9 761.459 9 762.012H11ZM9 8.96484V14.9414H11V8.96484H9ZM9 20.918V26.8945H11V20.918H9ZM9 32.8711V38.8477H11V32.8711H9ZM9 44.8242V50.8008H11V44.8242H9ZM9 56.7773V62.7539H11V56.7773H9ZM9 68.7305V74.707H11V68.7305H9ZM9 80.6836V86.6602H11V80.6836H9ZM9 92.6367V98.6133H11V92.6367H9ZM9 104.59V110.566H11V104.59H9ZM9 116.543V122.52H11V116.543H9ZM9 128.496V134.473H11V128.496H9ZM9 140.449V146.426H11V140.449H9ZM9 152.402V158.379H11V152.402H9ZM9 164.355V170.332H11V164.355H9ZM9 176.309V182.285H11V176.309H9ZM9 188.262V194.238H11V188.262H9ZM9 200.215V206.191H11V200.215H9ZM9 212.168V218.145H11V212.168H9ZM9 224.121V230.098H11V224.121H9ZM9 236.074V242.051H11V236.074H9ZM9 248.027V254.004H11V248.027H9ZM9 259.98V265.957H11V259.98H9ZM9 271.934V277.91H11V271.934H9ZM9 283.887V289.863H11V283.887H9ZM9 295.84V301.816H11V295.84H9ZM9 307.793V313.77H11V307.793H9ZM9 319.746V325.723H11V319.746H9ZM9 331.699V337.676H11V331.699H9ZM9 343.652V349.629H11V343.652H9ZM9 355.605V361.582H11V355.605H9ZM9 367.559V373.535H11V367.559H9ZM9 379.512V385.488H11V379.512H9ZM9 391.465V397.441H11V391.465H9ZM9 403.418V409.395H11V403.418H9ZM9 415.371V421.348H11V415.371H9ZM9 427.324V433.301H11V427.324H9ZM9 439.277V445.254H11V439.277H9ZM9 451.23V457.207H11V451.23H9ZM9 463.184V469.16H11V463.184H9ZM9 475.137V481.113H11V475.137H9ZM9 487.09V493.066H11V487.09H9ZM9 499.043V505.02H11V499.043H9ZM9 510.996V516.973H11V510.996H9ZM9 522.949V528.926H11V522.949H9ZM9 534.902V540.879H11V534.902H9ZM9 546.855V552.832H11V546.855H9ZM9 558.809V564.785H11V558.809H9ZM9 570.762V576.738H11V570.762H9ZM9 582.715V588.691H11V582.715H9ZM9 594.668V600.645H11V594.668H9ZM9 606.621V612.598H11V606.621H9ZM9 618.574V624.551H11V618.574H9ZM9 630.527V636.504H11V630.527H9ZM9 642.48V648.457H11V642.48H9ZM9 654.434V660.41H11V654.434H9ZM9 666.387V672.363H11V666.387H9ZM9 678.34V684.316H11V678.34H9ZM9 690.293V696.27H11V690.293H9ZM9 702.246V708.223H11V702.246H9ZM9 714.199V720.176H11V714.199H9ZM9 726.152V732.129H11V726.152H9ZM9 738.105V744.082H11V738.105H9ZM9 750.059V756.035H11V750.059H9ZM9 762.012V765H11V762.012H9Z" fill="#003A45"/>
<path d="M11 10L15.7735 0H4.2265L9 10H11ZM4.66667 765C4.66667 767.946 7.05448 770.333 10 770.333C12.9455 770.333 15.3333 767.946 15.3333 765C15.3333 762.054 12.9455 759.667 10 759.667C7.05448 759.667 4.66667 762.054 4.66667 765ZM9 2.98828C9 3.54057 9.44772 3.98828 10 3.98828C10.5523 3.98828 11 3.54057 11 2.98828H9ZM11 8.96484C11 8.41256 10.5523 7.96484 10 7.96484C9.44772 7.96484 9 8.41256 9 8.96484H11ZM9 14.9414C9 15.4937 9.44772 15.9414 10 15.9414C10.5523 15.9414 11 15.4937 11 14.9414H9ZM11 20.918C11 20.3657 10.5523 19.918 10 19.918C9.44772 19.918 9 20.3657 9 20.918H11ZM9 26.8945C9 27.4468 9.44772 27.8945 10 27.8945C10.5523 27.8945 11 27.4468 11 26.8945H9ZM11 32.8711C11 32.3188 10.5523 31.8711 10 31.8711C9.44772 31.8711 9 32.3188 9 32.8711H11ZM9 38.8477C9 39.3999 9.44772 39.8477 10 39.8477C10.5523 39.8477 11 39.3999 11 38.8477H9ZM11 44.8242C11 44.2719 10.5523 43.8242 10 43.8242C9.44772 43.8242 9 44.2719 9 44.8242H11ZM9 50.8008C9 51.3531 9.44772 51.8008 10 51.8008C10.5523 51.8008 11 51.3531 11 50.8008H9ZM11 56.7773C11 56.2251 10.5523 55.7773 10 55.7773C9.44772 55.7773 9 56.2251 9 56.7773H11ZM9 62.7539C9 63.3062 9.44772 63.7539 10 63.7539C10.5523 63.7539 11 63.3062 11 62.7539H9ZM11 68.7305C11 68.1782 10.5523 67.7305 10 67.7305C9.44772 67.7305 9 68.1782 9 68.7305H11ZM9 74.707C9 75.2593 9.44772 75.707 10 75.707C10.5523 75.707 11 75.2593 11 74.707H9ZM11 80.6836C11 80.1313 10.5523 79.6836 10 79.6836C9.44772 79.6836 9 80.1313 9 80.6836H11ZM9 86.6602C9 87.2124 9.44772 87.6602 10 87.6602C10.5523 87.6602 11 87.2124 11 86.6602H9ZM11 92.6367C11 92.0844 10.5523 91.6367 10 91.6367C9.44772 91.6367 9 92.0844 9 92.6367H11ZM9 98.6133C9 99.1656 9.44772 99.6133 10 99.6133C10.5523 99.6133 11 99.1656 11 98.6133H9ZM11 104.59C11 104.038 10.5523 103.59 10 103.59C9.44772 103.59 9 104.038 9 104.59H11ZM9 110.566C9 111.119 9.44772 111.566 10 111.566C10.5523 111.566 11 111.119 11 110.566H9ZM11 116.543C11 115.991 10.5523 115.543 10 115.543C9.44772 115.543 9 115.991 9 116.543H11ZM9 122.52C9 123.072 9.44772 123.52 10 123.52C10.5523 123.52 11 123.072 11 122.52H9ZM11 128.496C11 127.944 10.5523 127.496 10 127.496C9.44772 127.496 9 127.944 9 128.496H11ZM9 134.473C9 135.025 9.44772 135.473 10 135.473C10.5523 135.473 11 135.025 11 134.473H9ZM11 140.449C11 139.897 10.5523 139.449 10 139.449C9.44772 139.449 9 139.897 9 140.449H11ZM9 146.426C9 146.978 9.44772 147.426 10 147.426C10.5523 147.426 11 146.978 11 146.426H9ZM11 152.402C11 151.85 10.5523 151.402 10 151.402C9.44772 151.402 9 151.85 9 152.402H11ZM9 158.379C9 158.931 9.44772 159.379 10 159.379C10.5523 159.379 11 158.931 11 158.379H9ZM11 164.355C11 163.803 10.5523 163.355 10 163.355C9.44772 163.355 9 163.803 9 164.355H11ZM9 170.332C9 170.884 9.44772 171.332 10 171.332C10.5523 171.332 11 170.884 11 170.332H9ZM11 176.309C11 175.756 10.5523 175.309 10 175.309C9.44772 175.309 9 175.756 9 176.309H11ZM9 182.285C9 182.837 9.44772 183.285 10 183.285C10.5523 183.285 11 182.837 11 182.285H9ZM11 188.262C11 187.709 10.5523 187.262 10 187.262C9.44772 187.262 9 187.709 9 188.262H11ZM9 194.238C9 194.791 9.44772 195.238 10 195.238C10.5523 195.238 11 194.791 11 194.238H9ZM11 200.215C11 199.663 10.5523 199.215 10 199.215C9.44772 199.215 9 199.663 9 200.215H11ZM9 206.191C9 206.744 9.44772 207.191 10 207.191C10.5523 207.191 11 206.744 11 206.191H9ZM11 212.168C11 211.616 10.5523 211.168 10 211.168C9.44772 211.168 9 211.616 9 212.168H11ZM9 218.145C9 218.697 9.44772 219.145 10 219.145C10.5523 219.145 11 218.697 11 218.145H9ZM11 224.121C11 223.569 10.5523 223.121 10 223.121C9.44772 223.121 9 223.569 9 224.121H11ZM9 230.098C9 230.65 9.44772 231.098 10 231.098C10.5523 231.098 11 230.65 11 230.098H9ZM11 236.074C11 235.522 10.5523 235.074 10 235.074C9.44772 235.074 9 235.522 9 236.074H11ZM9 242.051C9 242.603 9.44772 243.051 10 243.051C10.5523 243.051 11 242.603 11 242.051H9ZM11 248.027C11 247.475 10.5523 247.027 10 247.027C9.44772 247.027 9 247.475 9 248.027H11ZM9 254.004C9 254.556 9.44772 255.004 10 255.004C10.5523 255.004 11 254.556 11 254.004H9ZM11 259.98C11 259.428 10.5523 258.98 10 258.98C9.44772 258.98 9 259.428 9 259.98H11ZM9 265.957C9 266.509 9.44772 266.957 10 266.957C10.5523 266.957 11 266.509 11 265.957H9ZM11 271.934C11 271.381 10.5523 270.934 10 270.934C9.44772 270.934 9 271.381 9 271.934H11ZM9 277.91C9 278.462 9.44772 278.91 10 278.91C10.5523 278.91 11 278.462 11 277.91H9ZM11 283.887C11 283.334 10.5523 282.887 10 282.887C9.44772 282.887 9 283.334 9 283.887H11ZM9 289.863C9 290.416 9.44772 290.863 10 290.863C10.5523 290.863 11 290.416 11 289.863H9ZM11 295.84C11 295.288 10.5523 294.84 10 294.84C9.44772 294.84 9 295.288 9 295.84H11ZM9 301.816C9 302.369 9.44772 302.816 10 302.816C10.5523 302.816 11 302.369 11 301.816H9ZM11 307.793C11 307.241 10.5523 306.793 10 306.793C9.44772 306.793 9 307.241 9 307.793H11ZM9 313.77C9 314.322 9.44772 314.77 10 314.77C10.5523 314.77 11 314.322 11 313.77H9ZM11 319.746C11 319.194 10.5523 318.746 10 318.746C9.44772 318.746 9 319.194 9 319.746H11ZM9 325.723C9 326.275 9.44772 326.723 10 326.723C10.5523 326.723 11 326.275 11 325.723H9ZM11 331.699C11 331.147 10.5523 330.699 10 330.699C9.44772 330.699 9 331.147 9 331.699H11ZM9 337.676C9 338.228 9.44772 338.676 10 338.676C10.5523 338.676 11 338.228 11 337.676H9ZM11 343.652C11 343.1 10.5523 342.652 10 342.652C9.44772 342.652 9 343.1 9 343.652H11ZM9 349.629C9 350.181 9.44772 350.629 10 350.629C10.5523 350.629 11 350.181 11 349.629H9ZM11 355.605C11 355.053 10.5523 354.605 10 354.605C9.44772 354.605 9 355.053 9 355.605H11ZM9 361.582C9 362.134 9.44772 362.582 10 362.582C10.5523 362.582 11 362.134 11 361.582H9ZM11 367.559C11 367.006 10.5523 366.559 10 366.559C9.44772 366.559 9 367.006 9 367.559H11ZM9 373.535C9 374.087 9.44772 374.535 10 374.535C10.5523 374.535 11 374.087 11 373.535H9ZM11 379.512C11 378.959 10.5523 378.512 10 378.512C9.44772 378.512 9 378.959 9 379.512H11ZM9 385.488C9 386.041 9.44772 386.488 10 386.488C10.5523 386.488 11 386.041 11 385.488H9ZM11 391.465C11 390.913 10.5523 390.465 10 390.465C9.44772 390.465 9 390.913 9 391.465H11ZM9 397.441C9 397.994 9.44772 398.441 10 398.441C10.5523 398.441 11 397.994 11 397.441H9ZM11 403.418C11 402.866 10.5523 402.418 10 402.418C9.44772 402.418 9 402.866 9 403.418H11ZM9 409.395C9 409.947 9.44772 410.395 10 410.395C10.5523 410.395 11 409.947 11 409.395H9ZM11 415.371C11 414.819 10.5523 414.371 10 414.371C9.44772 414.371 9 414.819 9 415.371H11ZM9 421.348C9 421.9 9.44772 422.348 10 422.348C10.5523 422.348 11 421.9 11 421.348H9ZM11 427.324C11 426.772 10.5523 426.324 10 426.324C9.44772 426.324 9 426.772 9 427.324H11ZM9 433.301C9 433.853 9.44772 434.301 10 434.301C10.5523 434.301 11 433.853 11 433.301H9ZM11 439.277C11 438.725 10.5523 438.277 10 438.277C9.44772 438.277 9 438.725 9 439.277H11ZM9 445.254C9 445.806 9.44772 446.254 10 446.254C10.5523 446.254 11 445.806 11 445.254H9ZM11 451.23C11 450.678 10.5523 450.23 10 450.23C9.44772 450.23 9 450.678 9 451.23H11ZM9 457.207C9 457.759 9.44772 458.207 10 458.207C10.5523 458.207 11 457.759 11 457.207H9ZM11 463.184C11 462.631 10.5523 462.184 10 462.184C9.44772 462.184 9 462.631 9 463.184H11ZM9 469.16C9 469.712 9.44772 470.16 10 470.16C10.5523 470.16 11 469.712 11 469.16H9ZM11 475.137C11 474.584 10.5523 474.137 10 474.137C9.44772 474.137 9 474.584 9 475.137H11ZM9 481.113C9 481.666 9.44772 482.113 10 482.113C10.5523 482.113 11 481.666 11 481.113H9ZM11 487.09C11 486.538 10.5523 486.09 10 486.09C9.44772 486.09 9 486.538 9 487.09H11ZM9 493.066C9 493.619 9.44772 494.066 10 494.066C10.5523 494.066 11 493.619 11 493.066H9ZM11 499.043C11 498.491 10.5523 498.043 10 498.043C9.44772 498.043 9 498.491 9 499.043H11ZM9 505.02C9 505.572 9.44772 506.02 10 506.02C10.5523 506.02 11 505.572 11 505.02H9ZM11 510.996C11 510.444 10.5523 509.996 10 509.996C9.44772 509.996 9 510.444 9 510.996H11ZM9 516.973C9 517.525 9.44772 517.973 10 517.973C10.5523 517.973 11 517.525 11 516.973H9ZM11 522.949C11 522.397 10.5523 521.949 10 521.949C9.44772 521.949 9 522.397 9 522.949H11ZM9 528.926C9 529.478 9.44772 529.926 10 529.926C10.5523 529.926 11 529.478 11 528.926H9ZM11 534.902C11 534.35 10.5523 533.902 10 533.902C9.44772 533.902 9 534.35 9 534.902H11ZM9 540.879C9 541.431 9.44772 541.879 10 541.879C10.5523 541.879 11 541.431 11 540.879H9ZM11 546.855C11 546.303 10.5523 545.855 10 545.855C9.44772 545.855 9 546.303 9 546.855H11ZM9 552.832C9 553.384 9.44772 553.832 10 553.832C10.5523 553.832 11 553.384 11 552.832H9ZM11 558.809C11 558.256 10.5523 557.809 10 557.809C9.44772 557.809 9 558.256 9 558.809H11ZM9 564.785C9 565.337 9.44772 565.785 10 565.785C10.5523 565.785 11 565.337 11 564.785H9ZM11 570.762C11 570.209 10.5523 569.762 10 569.762C9.44772 569.762 9 570.209 9 570.762H11ZM9 576.738C9 577.291 9.44772 577.738 10 577.738C10.5523 577.738 11 577.291 11 576.738H9ZM11 582.715C11 582.163 10.5523 581.715 10 581.715C9.44772 581.715 9 582.163 9 582.715H11ZM9 588.691C9 589.244 9.44772 589.691 10 589.691C10.5523 589.691 11 589.244 11 588.691H9ZM11 594.668C11 594.116 10.5523 593.668 10 593.668C9.44772 593.668 9 594.116 9 594.668H11ZM9 600.645C9 601.197 9.44772 601.645 10 601.645C10.5523 601.645 11 601.197 11 600.645H9ZM11 606.621C11 606.069 10.5523 605.621 10 605.621C9.44772 605.621 9 606.069 9 606.621H11ZM9 612.598C9 613.15 9.44772 613.598 10 613.598C10.5523 613.598 11 613.15 11 612.598H9ZM11 618.574C11 618.022 10.5523 617.574 10 617.574C9.44772 617.574 9 618.022 9 618.574H11ZM9 624.551C9 625.103 9.44772 625.551 10 625.551C10.5523 625.551 11 625.103 11 624.551H9ZM11 630.527C11 629.975 10.5523 629.527 10 629.527C9.44772 629.527 9 629.975 9 630.527H11ZM9 636.504C9 637.056 9.44772 637.504 10 637.504C10.5523 637.504 11 637.056 11 636.504H9ZM11 642.48C11 641.928 10.5523 641.48 10 641.48C9.44772 641.48 9 641.928 9 642.48H11ZM9 648.457C9 649.009 9.44772 649.457 10 649.457C10.5523 649.457 11 649.009 11 648.457H9ZM11 654.434C11 653.881 10.5523 653.434 10 653.434C9.44772 653.434 9 653.881 9 654.434H11ZM9 660.41C9 660.962 9.44772 661.41 10 661.41C10.5523 661.41 11 660.962 11 660.41H9ZM11 666.387C11 665.834 10.5523 665.387 10 665.387C9.44772 665.387 9 665.834 9 666.387H11ZM9 672.363C9 672.916 9.44772 673.363 10 673.363C10.5523 673.363 11 672.916 11 672.363H9ZM11 678.34C11 677.788 10.5523 677.34 10 677.34C9.44772 677.34 9 677.788 9 678.34H11ZM9 684.316C9 684.869 9.44772 685.316 10 685.316C10.5523 685.316 11 684.869 11 684.316H9ZM11 690.293C11 689.741 10.5523 689.293 10 689.293C9.44772 689.293 9 689.741 9 690.293H11ZM9 696.27C9 696.822 9.44772 697.27 10 697.27C10.5523 697.27 11 696.822 11 696.27H9ZM11 702.246C11 701.694 10.5523 701.246 10 701.246C9.44772 701.246 9 701.694 9 702.246H11ZM9 708.223C9 708.775 9.44772 709.223 10 709.223C10.5523 709.223 11 708.775 11 708.223H9ZM11 714.199C11 713.647 10.5523 713.199 10 713.199C9.44772 713.199 9 713.647 9 714.199H11ZM9 720.176C9 720.728 9.44772 721.176 10 721.176C10.5523 721.176 11 720.728 11 720.176H9ZM11 726.152C11 725.6 10.5523 725.152 10 725.152C9.44772 725.152 9 725.6 9 726.152H11ZM9 732.129C9 732.681 9.44772 733.129 10 733.129C10.5523 733.129 11 732.681 11 732.129H9ZM11 738.105C11 737.553 10.5523 737.105 10 737.105C9.44772 737.105 9 737.553 9 738.105H11ZM9 744.082C9 744.634 9.44772 745.082 10 745.082C10.5523 745.082 11 744.634 11 744.082H9ZM11 750.059C11 749.506 10.5523 749.059 10 749.059C9.44772 749.059 9 749.506 9 750.059H11ZM9 756.035C9 756.587 9.44772 757.035 10 757.035C10.5523 757.035 11 756.587 11 756.035H9ZM11 762.012C11 761.459 10.5523 761.012 10 761.012C9.44772 761.012 9 761.459 9 762.012H11ZM9 8.96484V14.9414H11V8.96484H9ZM9 20.918V26.8945H11V20.918H9ZM9 32.8711V38.8477H11V32.8711H9ZM9 44.8242V50.8008H11V44.8242H9ZM9 56.7773V62.7539H11V56.7773H9ZM9 68.7305V74.707H11V68.7305H9ZM9 80.6836V86.6602H11V80.6836H9ZM9 92.6367V98.6133H11V92.6367H9ZM9 104.59V110.566H11V104.59H9ZM9 116.543V122.52H11V116.543H9ZM9 128.496V134.473H11V128.496H9ZM9 140.449V146.426H11V140.449H9ZM9 152.402V158.379H11V152.402H9ZM9 164.355V170.332H11V164.355H9ZM9 176.309V182.285H11V176.309H9ZM9 188.262V194.238H11V188.262H9ZM9 200.215V206.191H11V200.215H9ZM9 212.168V218.145H11V212.168H9ZM9 224.121V230.098H11V224.121H9ZM9 236.074V242.051H11V236.074H9ZM9 248.027V254.004H11V248.027H9ZM9 259.98V265.957H11V259.98H9ZM9 271.934V277.91H11V271.934H9ZM9 283.887V289.863H11V283.887H9ZM9 295.84V301.816H11V295.84H9ZM9 307.793V313.77H11V307.793H9ZM9 319.746V325.723H11V319.746H9ZM9 331.699V337.676H11V331.699H9ZM9 343.652V349.629H11V343.652H9ZM9 355.605V361.582H11V355.605H9ZM9 367.559V373.535H11V367.559H9ZM9 379.512V385.488H11V379.512H9ZM9 391.465V397.441H11V391.465H9ZM9 403.418V409.395H11V403.418H9ZM9 415.371V421.348H11V415.371H9ZM9 427.324V433.301H11V427.324H9ZM9 439.277V445.254H11V439.277H9ZM9 451.23V457.207H11V451.23H9ZM9 463.184V469.16H11V463.184H9ZM9 475.137V481.113H11V475.137H9ZM9 487.09V493.066H11V487.09H9ZM9 499.043V505.02H11V499.043H9ZM9 510.996V516.973H11V510.996H9ZM9 522.949V528.926H11V522.949H9ZM9 534.902V540.879H11V534.902H9ZM9 546.855V552.832H11V546.855H9ZM9 558.809V564.785H11V558.809H9ZM9 570.762V576.738H11V570.762H9ZM9 582.715V588.691H11V582.715H9ZM9 594.668V600.645H11V594.668H9ZM9 606.621V612.598H11V606.621H9ZM9 618.574V624.551H11V618.574H9ZM9 630.527V636.504H11V630.527H9ZM9 642.48V648.457H11V642.48H9ZM9 654.434V660.41H11V654.434H9ZM9 666.387V672.363H11V666.387H9ZM9 678.34V684.316H11V678.34H9ZM9 690.293V696.27H11V690.293H9ZM9 702.246V708.223H11V702.246H9ZM9 714.199V720.176H11V714.199H9ZM9 726.152V732.129H11V726.152H9ZM9 738.105V744.082H11V738.105H9ZM9 750.059V756.035H11V750.059H9ZM9 762.012V765H11V762.012H9Z" fill="black" fill-opacity="0.2"/>
</g>
<defs>
<filter id="filter0_d_7_55" x="0.226501" y="0" width="19.547" height="778.333" filterUnits="userSpaceOnUse" color-interpolation-filters="sRGB">
<feFlood flood-opacity="0" result="BackgroundImageFix"/>
<feColorMatrix in="SourceAlpha" type="matrix" values="0 0 0 0 0 0 0 0 0 0 0 0 0 0 0 0 0 0 127 0" result="hardAlpha"/>
<feOffset dy="4"/>
<feGaussianBlur stdDeviation="2"/>
<feComposite in2="hardAlpha" operator="out"/>
<feColorMatrix type="matrix" values="0 0 0 0 0 0 0 0 0 0 0 0 0 0 0 0 0 0 0.25 0"/>
<feBlend mode="normal" in2="BackgroundImageFix" result="effect1_dropShadow_7_55"/>
<feBlend mode="normal" in="SourceGraphic" in2="effect1_dropShadow_7_55" result="shape"/>
</filter>
</defs>
</svg>
