<svg id="visual" viewBox="0 0 960 540" width="960" height="540" xmlns="http://www.w3.org/2000/svg" xmlns:xlink="http://www.w3.org/1999/xlink" version="1.1"><path d="M0 174L46 174L46 82L91 82L91 17L137 17L137 23L183 23L183 141L229 141L229 228L274 228L274 60L320 60L320 28L366 28L366 136L411 136L411 12L457 12L457 298L503 298L503 17L549 17L549 125L594 125L594 82L640 82L640 6L686 6L686 168L731 168L731 55L777 55L777 233L823 233L823 174L869 174L869 266L914 266L914 212L960 212L960 23L960 0L960 0L914 0L914 0L869 0L869 0L823 0L823 0L777 0L777 0L731 0L731 0L686 0L686 0L640 0L640 0L594 0L594 0L549 0L549 0L503 0L503 0L457 0L457 0L411 0L411 0L366 0L366 0L320 0L320 0L274 0L274 0L229 0L229 0L183 0L183 0L137 0L137 0L91 0L91 0L46 0L46 0L0 0Z" fill="#e8aa42"></path><path d="M0 174L46 174L46 179L91 179L91 50L137 50L137 23L183 23L183 287L229 287L229 357L274 357L274 98L320 98L320 141L366 141L366 185L411 185L411 104L457 104L457 303L503 303L503 141L549 141L549 222L594 222L594 152L640 152L640 125L686 125L686 282L731 282L731 104L777 104L777 363L823 363L823 271L869 271L869 336L914 336L914 217L960 217L960 131L960 21L960 210L914 210L914 264L869 264L869 172L823 172L823 231L777 231L777 53L731 53L731 166L686 166L686 4L640 4L640 80L594 80L594 123L549 123L549 15L503 15L503 296L457 296L457 10L411 10L411 134L366 134L366 26L320 26L320 58L274 58L274 226L229 226L229 139L183 139L183 21L137 21L137 15L91 15L91 80L46 80L46 172L0 172Z" fill="#9fa53e"></path><path d="M0 233L46 233L46 228L91 228L91 98L137 98L137 55L183 55L183 293L229 293L229 363L274 363L274 114L320 114L320 239L366 239L366 271L411 271L411 163L457 163L457 352L503 352L503 168L549 168L549 244L594 244L594 201L640 201L640 233L686 233L686 336L731 336L731 212L777 212L777 401L823 401L823 314L869 314L869 411L914 411L914 325L960 325L960 239L960 129L960 215L914 215L914 334L869 334L869 269L823 269L823 361L777 361L777 102L731 102L731 280L686 280L686 123L640 123L640 150L594 150L594 220L549 220L549 139L503 139L503 301L457 301L457 102L411 102L411 183L366 183L366 139L320 139L320 96L274 96L274 355L229 355L229 285L183 285L183 21L137 21L137 48L91 48L91 177L46 177L46 172L0 172Z" fill="#5d9750"></path><path d="M0 266L46 266L46 363L91 363L91 141L137 141L137 282L183 282L183 422L229 422L229 395L274 395L274 287L320 287L320 336L366 336L366 298L411 298L411 179L457 179L457 444L503 444L503 239L549 239L549 260L594 260L594 347L640 347L640 347L686 347L686 428L731 428L731 287L777 287L777 530L823 530L823 341L869 341L869 465L914 465L914 417L960 417L960 384L960 237L960 323L914 323L914 409L869 409L869 312L823 312L823 399L777 399L777 210L731 210L731 334L686 334L686 231L640 231L640 199L594 199L594 242L549 242L549 166L503 166L503 350L457 350L457 161L411 161L411 269L366 269L366 237L320 237L320 112L274 112L274 361L229 361L229 291L183 291L183 53L137 53L137 96L91 96L91 226L46 226L46 231L0 231Z" fill="#1b8464"></path><path d="M0 476L46 476L46 492L91 492L91 503L137 503L137 536L183 536L183 465L229 465L229 498L274 498L274 438L320 438L320 455L366 455L366 444L411 444L411 530L457 530L457 449L503 449L503 482L549 482L549 530L594 530L594 503L640 503L640 487L686 487L686 449L731 449L731 460L777 460L777 541L823 541L823 482L869 482L869 509L914 509L914 460L960 460L960 525L960 382L960 415L914 415L914 463L869 463L869 339L823 339L823 528L777 528L777 285L731 285L731 426L686 426L686 345L640 345L640 345L594 345L594 258L549 258L549 237L503 237L503 442L457 442L457 177L411 177L411 296L366 296L366 334L320 334L320 285L274 285L274 393L229 393L229 420L183 420L183 280L137 280L137 139L91 139L91 361L46 361L46 264L0 264Z" fill="#006d6c"></path><path d="M0 541L46 541L46 541L91 541L91 541L137 541L137 541L183 541L183 541L229 541L229 541L274 541L274 541L320 541L320 541L366 541L366 541L411 541L411 541L457 541L457 541L503 541L503 541L549 541L549 541L594 541L594 541L640 541L640 541L686 541L686 541L731 541L731 541L777 541L777 541L823 541L823 541L869 541L869 541L914 541L914 541L960 541L960 541L960 523L960 458L914 458L914 507L869 507L869 480L823 480L823 539L777 539L777 458L731 458L731 447L686 447L686 485L640 485L640 501L594 501L594 528L549 528L549 480L503 480L503 447L457 447L457 528L411 528L411 442L366 442L366 453L320 453L320 436L274 436L274 496L229 496L229 463L183 463L183 534L137 534L137 501L91 501L91 490L46 490L46 474L0 474Z" fill="#025464"></path></svg>