<svg id="visual" viewBox="0 0 960 180" width="960" height="180" xmlns="http://www.w3.org/2000/svg" xmlns:xlink="http://www.w3.org/1999/xlink" version="1.1"><rect x="0" y="0" width="960" height="180" fill="#025464"></rect><path d="M0 45L7.7 44.3C15.3 43.7 30.7 42.3 45.8 47C61 51.7 76 62.3 91.2 60.7C106.3 59 121.7 45 137 40.3C152.3 35.7 167.7 40.3 183 47.2C198.3 54 213.7 63 228.8 60.2C244 57.3 259 42.7 274.2 41.2C289.3 39.7 304.7 51.3 320 49.5C335.3 47.7 350.7 32.3 365.8 27C381 21.7 396 26.3 411.2 28.7C426.3 31 441.7 31 457 29C472.3 27 487.7 23 503 20.5C518.3 18 533.7 17 548.8 25.2C564 33.3 579 50.7 594.2 60C609.3 69.3 624.7 70.7 640 62.2C655.3 53.7 670.7 35.3 685.8 25.5C701 15.7 716 14.3 731.2 22.2C746.3 30 761.7 47 777 48.3C792.3 49.7 807.7 35.3 823 35.7C838.3 36 853.7 51 868.8 51.2C884 51.3 899 36.7 914.2 30.2C929.3 23.7 944.7 25.3 952.3 26.2L960 27L960 0L952.3 0C944.7 0 929.3 0 914.2 0C899 0 884 0 868.8 0C853.7 0 838.3 0 823 0C807.7 0 792.3 0 777 0C761.7 0 746.3 0 731.2 0C716 0 701 0 685.8 0C670.7 0 655.3 0 640 0C624.7 0 609.3 0 594.2 0C579 0 564 0 548.8 0C533.7 0 518.3 0 503 0C487.7 0 472.3 0 457 0C441.7 0 426.3 0 411.2 0C396 0 381 0 365.8 0C350.7 0 335.3 0 320 0C304.7 0 289.3 0 274.2 0C259 0 244 0 228.8 0C213.7 0 198.3 0 183 0C167.7 0 152.3 0 137 0C121.7 0 106.3 0 91.2 0C76 0 61 0 45.8 0C30.7 0 15.3 0 7.7 0L0 0Z" fill="#E8AA42" stroke-linecap="round" stroke-linejoin="miter"></path></svg>